<svg width="61" height="48" viewBox="0 0 61 48" fill="none" xmlns="http://www.w3.org/2000/svg">
<g clip-path="url(#clip0_1918_692)">
<path fill-rule="evenodd" clip-rule="evenodd" d="M60.4575 36.7374C59.2659 38.27 56.3466 39.3634 56.3466 39.3634L34.6297 47.3163V41.4512L50.6119 35.6454C52.4255 34.9829 52.704 34.0464 51.2298 33.5548C49.7584 33.0618 47.094 33.2031 45.2789 33.8684L34.6297 37.6923V31.6054L35.2435 31.3935C35.2435 31.3935 38.3207 30.2832 42.6478 29.7945C46.9748 29.3085 52.2731 29.8609 56.4325 31.4684C61.1198 32.9785 61.6477 35.2047 60.4575 36.7374ZM36.6969 26.7503V11.7514C36.6969 9.98988 36.3782 8.36822 34.7571 7.90912C33.5157 7.50371 32.7453 8.67899 32.7453 10.4391V48L22.8096 44.7849V0C27.0341 0.79953 33.1887 2.68958 36.4974 3.82672C44.9118 6.77198 47.7646 10.4377 47.7646 18.6971C47.7646 26.7475 42.8903 29.7987 36.6969 26.7503ZM4.5787 40.8381C-0.233281 39.4566 -1.03412 36.5778 1.15919 34.9194C3.18623 33.3881 6.63345 32.2354 6.63345 32.2354L20.8796 27.071V32.9587L10.628 36.6992C8.81706 37.3617 8.53857 38.2997 10.01 38.7913C11.4828 39.2829 14.1486 39.143 15.9623 38.4791L20.8796 36.6597V41.9272C20.5678 41.9838 20.2201 42.0403 19.8986 42.0953C14.9799 42.9147 9.74122 42.5728 4.5787 40.8381ZM57.2929 43.1703C57.9151 43.1703 58.4984 43.4161 58.9376 43.8696C59.3768 44.3159 59.6193 44.9121 59.6193 45.5449C59.6193 46.1806 59.3768 46.7739 58.9376 47.2202C58.4984 47.6709 57.9151 47.9167 57.2929 47.9167C56.6708 47.9167 56.0889 47.6709 55.6483 47.2202C55.2091 46.7739 54.968 46.1806 54.968 45.5449C54.968 44.2368 56.0099 43.1703 57.2929 43.1703ZM55.3587 45.5449C55.3587 46.0718 55.5596 46.5676 55.9254 46.9377C56.2898 47.3135 56.7775 47.5169 57.2929 47.5169C58.3612 47.5169 59.2272 46.6326 59.2272 45.5449C59.2272 45.0166 59.0276 44.5208 58.6605 44.1493C58.2961 43.7735 57.8084 43.5715 57.2929 43.5715C56.7775 43.5715 56.2898 43.7735 55.9254 44.1493C55.5596 44.5208 55.3587 45.0166 55.3587 45.5449ZM57.9954 44.2665C58.2504 44.3809 58.3792 44.6013 58.3792 44.9149C58.3792 45.0759 58.346 45.2115 58.2781 45.3175C58.2296 45.3938 58.1603 45.4559 58.0827 45.5096C58.1437 45.5463 58.1977 45.5901 58.2379 45.641C58.2933 45.7144 58.3252 45.8317 58.3293 45.9913L58.3418 46.3289C58.346 46.4193 58.3515 46.4885 58.3654 46.5309C58.3792 46.5931 58.4056 46.6326 58.4388 46.6453L58.4734 46.6623V46.7004V46.7583V46.8163H58.4166H58.0051H57.9719L57.9552 46.7866C57.9414 46.7584 57.9317 46.7259 57.922 46.6835C57.9151 46.6453 57.9081 46.579 57.904 46.4772L57.8832 46.0577C57.8776 45.9122 57.8291 45.8218 57.7377 45.7738C57.6809 45.7469 57.5867 45.7342 57.4592 45.7342H56.754V46.7584V46.8163H56.6958H56.3605H56.3037V46.7584V44.234V44.1761H56.3605H57.5063C57.7031 44.1761 57.8679 44.2058 57.9954 44.2665ZM56.754 45.3302H57.4717C57.6158 45.3302 57.7308 45.3033 57.8125 45.2483C57.8873 45.1932 57.9234 45.0929 57.9234 44.9474C57.9234 44.7892 57.8721 44.686 57.764 44.631C57.7044 44.6013 57.6213 44.5843 57.516 44.5843H56.754V45.3302Z" fill="#030217"/>
</g>
<defs>
<clipPath id="clip0_1918_692">
<rect width="61" height="48" fill="white"/>
</clipPath>
</defs>
</svg>
